<svg width="552" height="269" viewBox="0 0 552 269" fill="none" xmlns="http://www.w3.org/2000/svg">
<path d="M0 50.7334L121.103 208.809H197.142L276 100.131L353.083 208.809H423.491L552 50.7334H473.142L394.286 159.41L315.428 50.7334H236.572L157.714 159.41L78.8565 50.7334H0Z" fill="#006399"/>
<path d="M223.429 208.809H328.571L275.513 129.038L223.429 208.809Z" fill="#006399"/>
<path d="M341.714 50.7334H446.857L394.286 129.771L341.714 50.7334Z" fill="#006399"/>
<path d="M105.143 50.7334H210.286L157.714 129.771L105.143 50.7334Z" fill="#006399"/>
<path d="M29.341 32.5232H22.6839L17.9014 18.1427L13.1188 32.5232H6.46282L0 0.00111437H7.81964L10.8568 18.3961L15.9628 2.9478H19.9051L24.946 18.1416L28.0482 0H35.8679L29.341 32.5232Z" fill="#006399"/>
<path d="M39.0971 32.523V0.000976562H64.8832V5.64206H46.6584V13.3147H59.0022V19.2092H46.6584V26.8819H64.8832V32.523H39.0971Z" fill="#006399"/>
<path d="M86.1418 19.2092V32.523H78.7097L78.6456 19.2092L66.8185 0.000976562H75.5434L82.4589 12.8578L89.116 0.000976562H97.6466L86.1418 19.2092Z" fill="#006399"/>
<path d="M100.872 32.523V0.000976562H108.37V26.8819H124.979V32.523H100.872Z" fill="#006399"/>
<path d="M149.6 32.523L146.692 24.5449H136.352L133.766 32.523H126.27L138.096 0.000976562H144.946L156.838 32.523H149.6ZM141.521 9.45296L138.289 19.2092H144.687L141.521 9.45296Z" fill="#006399"/>
<path d="M179.26 32.523L167.434 14.0771L167.498 32.523H160.067V0.000976562H166.594L178.421 18.448V0.000976562H185.789V32.523H179.26Z" fill="#006399"/>
<path d="M212.862 32.523H192.246V0.000976562H212.862L218.032 4.06635V28.4576L212.862 32.523ZM210.536 5.64206H199.809V26.8819H210.536V5.64206Z" fill="#006399"/>
<path d="M223.845 20.4808V15.0942H243.233V20.4808H223.845Z" fill="#006399"/>
<path d="M265.14 19.2092V32.523H257.707L257.643 19.2092L245.816 0.000976562H254.54L261.456 12.8578L268.112 0.000976562H276.643L265.14 19.2092Z" fill="#006399"/>
<path d="M300.423 32.523H285.041L279.871 28.4576V0.000976562H287.368V26.8819H298.095V0.000976562H305.593V28.4576L300.423 32.523Z" fill="#006399"/>
<path d="M338.419 5.64196H327.693V32.5229H320.196V5.64196L309.468 5.69285V0.00195312H338.42V5.64196H338.419Z" fill="#006399"/>
<path d="M358.194 32.523L355.287 24.5449H344.944L342.359 32.523H334.863L346.689 0.000976562H353.541L365.432 32.523H358.194ZM350.116 9.45296L346.885 19.2092H353.283L350.116 9.45296Z" fill="#006399"/>
<path d="M387.854 32.523L376.028 14.0771L376.093 32.523H368.661V0.000976562H375.189L387.015 18.448V0.000976562H394.382V32.523H387.854Z" fill="#006399"/>
<path d="M408.338 32.523H400.84V0.000976562H408.338V32.523Z" fill="#006399"/>
<path d="M450.731 32.523H436.124L430.953 28.4576V4.06635L436.124 0.000976562H450.731L455.901 4.06635V5.64095H438.451V26.8808H455.901V28.4565L450.731 32.523Z" fill="#006399"/>
<path d="M481.294 32.523H465.913L460.743 28.4576V4.06635L465.913 0.000976562H481.294L486.465 4.06635V28.4576L481.294 32.523ZM478.969 5.64206H468.241V26.8819H478.969V5.64206Z" fill="#006399"/>
<path d="M511.601 32.523L505.399 19.9716H500.421V32.523H492.925V0.000976562H513.477L518.647 4.06635V15.9063L513.477 19.9716L519.939 32.523H511.601ZM511.15 5.64206H500.421V14.0771H511.15V5.64206Z" fill="#006399"/>
<path d="M544.687 19.9726H531.633V32.524H524.136V0.00195312H544.687L549.858 4.06736V15.9073L544.687 19.9726ZM542.361 5.64196H531.633V14.3315H542.361V5.64196Z" fill="#006399"/>
<path d="M5.74412 238.564L1.71121 222.855H9.54741V238.564H5.74412ZM15.0221 238.564L10.9892 222.855H18.8254V238.564H15.0221Z" fill="#006399"/>
<path d="M42.9092 259.815H24.585V222.855H42.9092L47.5172 227.475V238.159L44.6369 241.045L47.5172 243.932V255.195L42.9092 259.815ZM40.8348 229.264H31.2697V237.87H40.8348V229.264ZM40.8348 244.222H31.2697V253.403H40.8348V244.222Z" fill="#006399"/>
<path d="M75.6351 259.815H74.1369L68.9514 256.467L65.6085 259.815H57.8894L53.2791 255.196V230.42H59.9638V253.404H68.9514V230.42H75.6351V259.815Z" fill="#006399"/>
<path d="M81.3957 227.475V220.544H88.0804V227.475H81.3957ZM88.0804 259.815H81.3957V230.42H88.0804V259.815Z" fill="#006399"/>
<path d="M100.583 259.815H93.8411V222.797L99.2574 220.661L100.583 220.544V259.815Z" fill="#006399"/>
<path d="M128.7 259.815H127.203L122.016 256.466L118.674 259.815H110.953L106.344 255.196V235.042L110.953 230.421H118.674L122.016 233.77V222.679L127.375 220.604H128.7V259.815ZM122.016 236.831H113.029V253.403H122.016V236.831Z" fill="#006399"/>
<path d="M134.462 227.475V220.544H141.146V227.475H134.462ZM141.146 259.815H134.462V230.42H141.146V259.815Z" fill="#006399"/>
<path d="M169.263 259.815H162.578V236.831H153.591V259.815H146.907V230.42H148.405L153.591 233.769L156.934 230.42H164.654L169.263 235.041V259.815Z" fill="#006399"/>
<path d="M196.575 230.421H197.958V264.378L193.348 269H179.922L175.313 264.378V262.877H191.274V253.578L187.931 256.929H179.634L175.024 252.309V235.042L179.634 230.421H187.931L191.274 233.77L196.575 230.421ZM191.274 236.831H181.708V250.633H191.274V236.831Z" fill="#006399"/>
<path d="M236.446 259.815H218.123V222.855H236.446L241.055 227.475V238.159L238.174 241.045L241.055 243.932V255.195L236.446 259.815ZM234.371 229.264H224.808V237.87H234.371V229.264ZM234.371 244.222H224.808V253.403H234.371V244.222Z" fill="#006399"/>
<path d="M265.14 259.815H251.426L246.816 255.196V235.042L251.426 230.421H265.14L269.748 235.042V243.819L265.14 248.441H253.5V253.694H269.748V255.197L265.14 259.815ZM263.066 236.831H253.5V242.316H263.066V236.831Z" fill="#006399"/>
<path d="M282.943 236.831V253.403H289.165V259.815H280.87L276.259 255.196V236.831H272.803V235.331L276.259 230.421V223.143L281.503 220.544H282.943V230.421H289.281V236.831H282.943Z" fill="#006399"/>
<path d="M300.748 236.831V253.403H306.972V259.815H298.673L294.065 255.196V236.831H290.606V235.331L294.065 230.421V223.143L299.307 220.544H300.747V230.421H307.085V236.831H300.748Z" fill="#006399"/>
<path d="M329.154 259.815H315.442L310.831 255.196V235.042L315.442 230.421H329.154L333.765 235.042V243.819L329.154 248.441H317.516V253.694H333.765V255.197L329.154 259.815ZM327.08 236.831H317.516V242.316H327.08V236.831Z" fill="#006399"/>
<path d="M357.963 236.831H345.921V259.815H339.296L339.237 230.42H340.734L345.92 233.769L349.261 230.42H354.621L357.962 233.769V236.831H357.963Z" fill="#006399"/>
<path d="M399.102 259.815H393.168L388.904 243.472L384.64 259.815H378.704L372.943 222.855H379.915L382.622 243.761L387.177 226.205H390.691L395.186 243.473L397.95 222.855H404.922L399.102 259.815Z" fill="#006399"/>
<path d="M426.125 259.815H412.412L407.801 255.196V235.042L412.412 230.421H426.125L430.733 235.042V255.197L426.125 259.815ZM424.051 236.831H414.485V253.404H424.051V236.831Z" fill="#006399"/>
<path d="M455.221 236.831H443.179V259.815H436.554L436.495 230.42H437.992L443.179 233.769L446.521 230.42H451.878L455.221 233.769V236.831Z" fill="#006399"/>
<path d="M465.421 259.815H458.677V222.797L464.094 220.661L465.42 220.544V259.815H465.421Z" fill="#006399"/>
<path d="M493.536 259.815H492.038L486.853 256.466L483.511 259.815H475.79L471.181 255.196V235.042L475.79 230.421H483.511L486.853 233.77V222.679L492.211 220.604H493.536V259.815ZM486.852 236.831H477.864V253.403H486.852V236.831Z" fill="#006399"/>
<path d="M515.889 259.815H503.906L499.295 255.196V253.692H513.817V248.151H503.906L499.295 243.53V235.042L503.906 230.421H515.889L520.5 235.042V236.542H505.981V241.797H515.889L520.5 246.419V255.197L515.889 259.815Z" fill="#006399"/>
<path d="M530.065 238.564H526.26V222.855H534.099L530.065 238.564ZM539.339 238.564H535.539V222.855H543.374L539.339 238.564Z" fill="#006399"/>
</svg>
